<?xml version="1.0" encoding="UTF-8"?>
<svg width="133px" height="137px" viewBox="0 0 133 137" version="1.1" xmlns="http://www.w3.org/2000/svg" xmlns:xlink="http://www.w3.org/1999/xlink">
    <title>HouseLogo</title>
    <g id="Page-1" stroke="none" stroke-width="1" fill="none" fill-rule="evenodd">
        <g id="splash-screen" transform="translate(-130.000000, -168.000000)" fill="#F88D2A" fill-rule="nonzero">
            <g id="HouseLogo" transform="translate(130.000000, 168.000000)">
                <path d="M114.173081,116.108381 C114.173081,117.424934 113.873825,117.764466 112.717607,117.764466 L20.2202043,117.764466 C18.8599484,117.764466 18.8599484,116.655789 18.8599484,116.233107 L18.8599484,78.1985797 C18.8599484,76.2653253 18.8599484,76.1683162 20.1317877,74.8309754 L20.1793966,74.7824708 C21.3968257,73.4659176 64.4217206,29.368317 64.8570025,28.9179173 C65.6051433,28.1487731 66.0472264,27.7884533 66.5301173,27.7884533 C67.0130081,27.7884533 67.44829,28.1834192 67.9923924,28.7446866 C69.2506291,30.0196644 112.826428,74.7824708 113.26171,75.2328705 C113.893826,75.7038118 114.228876,76.4844262 114.139075,77.2769925 L114.173081,116.108381 Z M132.992222,68.1512005 L66.6525403,0.0576868583 C66.6179022,0.020837825 66.569995,0 66.5199154,0 C66.4698357,0 66.4219285,0.020837825 66.3872904,0.0576868583 L0.0748140759,68.165059 C0.0304811807,68.19407 0.00261988347,68.2430994 0,68.2967143 L0,136.805982 C0.00351767052,136.911615 0.0867530371,136.996416 0.190435829,137 L132.815389,137 C132.865293,137 132.913062,136.979375 132.947703,136.942776 C132.982343,136.906177 132.999579,136.85679 132.999579,136.805982 L132.999579,68.2967143 C133.00299,68.2478231 132.985567,68.1996416 132.951414,68.165059" id="Shape"></path>
            </g>
        </g>
    </g>
</svg>