<?xml version="1.0" encoding="UTF-8"?>
<svg width="268px" height="89px" viewBox="0 0 268 89" version="1.1" xmlns="http://www.w3.org/2000/svg" xmlns:xlink="http://www.w3.org/1999/xlink">
    <title>KwikTripMerch</title>
    <g id="Page-1" stroke="none" stroke-width="1" fill="none" fill-rule="evenodd">
        <g id="splash-screen" transform="translate(-73.000000, -404.000000)" fill="#FFFFFF" fill-rule="nonzero">
            <g id="KwikTripMerch" transform="translate(73.000000, 404.000000)">
                <polygon id="Path" points="259 42 259 42.35141 257.75188 42.35141 257.75188 45 257.240602 45 257.240602 42.35141 256 42.35141 256 42"></polygon>
                <path d="M260,42 L260.630252,42 L261.512605,44.5314534 L262.401261,42 L263,42 L263,45 L262.596639,45 L262.596639,43.2299349 C262.596639,43.164859 262.596639,43.0672451 262.596639,42.9240781 C262.596639,42.7809111 262.596639,42.6312364 262.596639,42.4685466 L261.707983,45 L261.260504,45 L260.371849,42.4685466 L260.371849,42.5401302 C260.371849,42.6117137 260.371849,42.7288503 260.371849,42.8785249 C260.371849,43.0281996 260.371849,43.1388286 260.371849,43.2104121 L260.371849,44.9804772 L260,44.9804772 L260,42 Z" id="Path"></path>
                <path d="M235.882106,13.282984 C235.74035,13.1008897 235.516242,12.9956218 235.279951,13 L225.902496,13 C225.512367,12.9963189 225.158477,13.2197747 225.006607,13.5658283 L213.036949,43.2644761 C212.968512,43.43267 212.996362,43.6230764 213.110383,43.7665246 C213.228261,43.9170073 213.414025,44.0038153 213.609731,44 L223.273577,44 C223.594927,43.9982134 223.884092,43.8116554 224.007912,43.526107 L235.955539,13.8698858 C236.037817,13.6661983 236.004459,13.4359903 235.867419,13.2617707" id="Path"></path>
                <path d="M205.063901,13.1838246 C204.379837,13.0602814 203.685992,12.9987759 202.990839,13.0000292 L188.231772,13.0000292 C187.945285,12.9974354 187.685492,13.1676594 187.573769,13.4312012 L176.041036,43.1163949 C175.964401,43.3179539 175.996443,43.5446784 176.12594,43.7171667 C176.261047,43.897145 176.473852,44.0021241 176.699039,43.9999422 L185.79787,43.9999422 C186.156623,44.0015537 186.480845,43.7865623 186.618604,43.4556543 L190.283607,34.0129355 C190.362022,33.8254503 190.547215,33.7049206 190.750577,33.7090157 L195.179712,33.7090157 C195.421222,33.703236 195.628451,33.8798056 195.660833,34.1189541 L196.658449,43.4061789 C196.714506,43.7518403 197.015474,44.0043893 197.365979,43.9999422 L206.316228,43.9999422 C206.511266,44.0010854 206.69815,43.9218067 206.832725,43.7807778 C206.965977,43.6467768 207.031055,43.4595486 207.009607,43.2718888 L204.887019,34.0129355 C204.863976,33.6483885 205.100366,33.3177871 205.453042,33.2213303 C210.05906,31.8642929 214,27.8991992 214,23.3262658 C214,18.3787335 210.228867,14.0673125 205.028525,13.1414172 M202.985578,24.1887011 L202.985578,24.1887011 C202.484143,25.6250112 201.348541,26.5299273 200.115231,26.475965 L194.092747,26.475965 C193.949726,26.4766759 193.814394,26.3935608 193.725762,26.2505777 C193.642429,26.1094351 193.620275,25.9244365 193.666782,25.7580647 L195.239575,20.2402492 C195.333518,19.9315001 195.569503,19.7310998 195.829372,19.7393884 L200.115231,19.7393884 C201.786324,19.7393884 203.142857,21.2503183 203.142857,23.0784599 C203.142306,23.448579 203.091306,23.8157655 202.992131,24.1636581" id="Shape"></path>
                <path d="M67.4443514,33.6589177 L67.2003785,43.2215072 C67.1958466,43.4326847 67.2795786,43.6359745 67.4309261,43.781245 C67.5822735,43.9265155 67.7871502,44 67.995033,43.9842544 L79.4129638,43.9842544 C79.7939043,43.9833966 80.1429319,43.7685014 80.3191488,43.426319 L91.8974046,14.1453025 C92.0341985,13.9023683 92.0341985,13.6043022 91.8974046,13.361368 C91.741675,13.1278088 91.4783785,12.9917588 91.2003392,13.0011818 L81.7411621,13.0011818 C81.3610932,13.0051555 81.0135223,13.2191539 80.8349772,13.5591172 L74.3871225,30.205368 L75.7812532,13.7709914 C75.7835048,13.5599143 75.6993193,13.3573299 75.5487318,13.2114504 C75.3981442,13.065571 75.1946213,12.9894423 74.9865987,13.0011818 L66.6218143,13.0011818 C65.852017,13.0072519 65.1477586,13.4413417 64.7885323,14.1311776 L58.1385287,30.205368 L59.8602802,13.6226795 C59.8585598,13.452192 59.7885564,13.2897266 59.6663242,13.1725425 C59.544092,13.0553584 59.3801187,12.9935101 59.2120094,13.0011818 L50.0734824,13.0011818 C49.8134513,13.0117752 49.5659311,13.1171031 49.376417,13.2978057 C49.1772178,13.4771143 49.0630855,13.7340826 49.0627376,14.0040531 L49,43.2426947 C48.9995592,43.4519818 49.0848027,43.6520827 49.2354184,43.7953122 C49.386034,43.9385416 49.5885321,44.0120716 49.7946562,43.9983794 L60.5224923,43.9983794 C60.9006539,43.9943053 61.2471708,43.7836565 61.4286773,43.4475064 L66.4545186,33.5600431 C66.5556093,33.3616883 66.7569868,33.2365498 66.9773176,33.2351693 L67.0470241,33.2351693 C67.2763921,33.2502983 67.4523731,33.4473658 67.4443514,33.6801051" id="Path"></path>
                <path d="M148.958646,13.3956218 C148.864563,13.1498437 148.628232,12.9913592 148.369241,13.0003647 L135.180429,13.0003647 C134.929266,12.9981564 134.6848,13.0827612 134.487011,13.2403422 L122.636496,23.982865 L127.275463,13.8261697 C127.345192,13.6392347 127.316434,13.4290097 127.199187,13.2685749 C127.077686,13.1054976 126.887104,13.0111244 126.686058,13.0144811 L117.519071,13.0144811 C116.939052,13.0082796 116.412939,13.3597146 116.187708,13.9038095 L105.037546,43.1881242 C104.967692,43.3727105 104.996541,43.5809372 105.113822,43.7386608 C105.233853,43.9043983 105.424672,44.0015133 105.626951,44 L114.793938,44 C115.051197,44.002684 115.284407,43.8462922 115.383344,43.6045557 L117.116889,39.1720299 C117.193348,38.9707685 117.322926,38.7949086 117.491334,38.6638422 L124.93171,32.6996952 C125.042075,32.6107381 125.179264,32.5633598 125.320024,32.5655901 C125.405649,32.5648395 125.490545,32.5816424 125.569655,32.6149973 C125.775786,32.6984439 125.914354,32.8975671 125.923298,33.123185 L126.686058,43.4139853 C126.704674,43.748693 126.980877,44.0079679 127.310134,44 L137.212144,44 C137.383365,44 137.547759,43.9314845 137.6698,43.8092424 C137.78821,43.6907097 137.85128,43.5263643 137.843154,43.35752 L134.896128,25.8673943 C134.873081,25.4757761 135.041823,25.0979048 135.346849,24.8580771 L148.771423,14.101438 C148.978099,13.9484952 149.055403,13.6716364 148.958646,13.4309126" id="Path"></path>
                <path d="M266.30344,17.9129984 C264.159133,14.7984588 260.55762,12.9518338 256.723379,13.000956 L243.016965,13.000956 C242.355885,12.9918255 241.755813,13.3781664 241.502046,13.9762968 L230.039155,43.2011823 C229.966309,43.3836614 229.996425,43.5901978 230.118508,43.7453942 C230.244911,43.9086915 230.44318,44.0031921 230.652337,43.9999176 L239.951057,43.9999176 L239.951057,43.9999176 C240.26672,43.9915096 240.548506,43.8037789 240.672447,43.5192282 C241.47319,41.490802 243.824922,35.5892834 244.337109,34.3312352 C244.495369,33.9664717 244.863195,33.7318116 245.267702,33.7375495 L256.701737,33.7375495 C260.113912,33.7375495 264.514393,32.1119815 266.548713,28.6346795 C268.578538,25.3138873 268.471784,21.1440505 266.274585,17.9271338 M253.865654,26.4781468 L248.125287,26.4781468 C247.967689,26.4808304 247.817566,26.4143843 247.718268,26.2979957 C247.632142,26.175142 247.618874,26.018704 247.68318,25.8843156 L249.374413,21.4739514 C249.475166,21.2380942 249.717209,21.0846723 249.984941,21.086935 L253.893725,21.086935 C255.683204,21.086935 257.142857,22.2946394 257.142857,23.7558645 C257.142857,25.2170895 255.683204,26.4247687 253.893725,26.4247687" id="Shape"></path>
                <path d="M26.8016445,25.0985275 L28.3831151,44.1265241 C28.4198127,44.6228786 28.8282712,45.0049735 29.3166705,45 L41.0627475,45 C41.2753679,44.9983034 41.4779938,44.9076318 41.6229782,44.7491302 C41.7679626,44.5906286 41.842513,44.3782824 41.8290989,44.1620241 L38.694025,14.9313293 C38.6687294,14.5309664 38.8380052,14.1434792 39.146869,13.8947295 L54.8570728,0.64613189 C54.9795467,0.549298561 55.0296355,0.384816502 54.9824757,0.234331964 C54.924968,0.0996747454 54.7920378,0.0150053139 54.6480679,0.021332002 L39.2235041,0.021332002 C38.986322,0.0212146713 38.7567696,0.106741166 38.5755888,0.262731959 L23.7362389,15.7620292 L29.7764813,0.617731895 C29.8326357,0.478867199 29.8166554,0.320550638 29.733937,0.196244553 C29.6512186,0.0719384687 29.5128053,-0.00176171773 29.3654383,0 L17.3267544,0 C16.998536,0.00407687002 16.7047211,0.208361574 16.5813035,0.518331913 L0.0699141379,43.6792242 C-0.0487975214,43.9764546 -0.0148566536,44.3143687 0.16048294,44.580924 C0.332721993,44.8478616 0.627340166,45.0060288 0.940768008,45 L11.697555,45 C12.2974105,44.9849234 12.8312526,44.6082761 13.056087,44.0413241 L17.6541955,32.1275263 C17.8288208,31.6699456 18.1168636,31.2663163 18.4902152,30.9560265 L25.9238238,24.7435276 C26.0240165,24.6591419 26.149185,24.6116192 26.2791322,24.6086276 C26.3463201,24.6091782 26.4126936,24.623673 26.4742035,24.6512276 C26.6554264,24.7280524 26.7810115,24.8996075 26.8016445,25.0985275" id="Path"></path>
                <path d="M108.889449,13.2829849 C108.747693,13.10089 108.523586,12.9956218 108.287295,13 L98.9024956,13 C98.5123669,12.9963189 98.1584769,13.2197755 98.0066071,13.5658302 L86.0369495,43.2645784 C85.9685117,43.4327729 85.996362,43.62318 86.1103829,43.7666287 C86.2297863,43.9153147 86.4145472,44.0016543 86.6097306,44 L96.2809203,44 C96.6010913,43.9946592 96.8883692,43.8093181 97.0152551,43.5262102 L108.955539,13.8698888 C109.037817,13.6662005 109.004459,13.4359918 108.867419,13.2617716" id="Path"></path>
                <path d="M155.349876,44.9835233 L165.684638,44.9835233 C166.30023,45.0853573 166.894549,44.7060934 167.074653,44.0964861 L180.085193,9.96329538 C180.317188,9.38913435 180.866912,9.01587699 181.475208,9.01948782 L192.838581,9.01948782 C193.35119,9.02746038 193.81668,8.71529135 194.013144,8.2317988 L196.959976,0.809071666 C197.031963,0.624691271 197.005688,0.415435796 196.890475,0.255560465 C196.768695,0.0916020637 196.577677,-0.00328103915 196.376169,0 L158.039555,0 C157.675635,-0.00518689563 157.344142,0.212998407 157.198596,0.553604958 L154.036312,8.35953216 C153.974209,8.5092776 153.992625,8.68119707 154.084962,8.81369519 C154.182636,8.94779821 154.338368,9.02465221 154.501967,9.01948782 L167.053803,9.01948782 C167.278687,9.01660837 167.491034,9.12501604 167.623709,9.31043602 C167.753364,9.48800732 167.784843,9.72103543 167.70711,9.92781389 L154.647919,44.0255232 C154.564222,44.2480628 154.595552,44.4986415 154.731319,44.6925751 C154.879326,44.8875819 155.108267,45.0005206 155.349876,44.9977159" id="Path"></path>
                <polygon id="Path" points="54 83.2079108 57.3131068 83.2079108 58.1767799 65.7920892 54.7220874 65.7920892 54.7220874 61 63.7269417 61 71.5141586 74.6916836 79.3013754 61 88.2212783 61 88.2212783 65.7920892 84.7949029 65.7920892 85.6868932 83.2079108 89 83.2079108 89 88 76.5121359 88 76.5121359 83.2079108 79.7402913 83.2079108 79.1881068 71.0496957 71.7548544 83.413286 71.1177184 83.413286 63.7269417 71.0496957 63.1747573 83.2079108 66.3604369 83.2079108 66.3604369 88 54 88"></polygon>
                <polygon id="Path" points="90 83.2191781 93.3669202 83.2191781 93.3669202 65.7945205 90 65.7945205 90 61 112.956274 61 112.956274 69.2191781 107.271863 69.2191781 107.271863 65.7945205 99.5760456 65.7945205 99.5760456 72.1232877 108.015209 72.1232877 108.015209 76.4794521 99.5760456 76.4794521 99.5760456 83.2191781 107.271863 83.2191781 107.271863 79.6164384 113 79.6164384 113 88 90 88"></polygon>
                <path d="M128.617009,88 L116,88 L116,83.2103396 L119.338521,83.2103396 L119.338521,65.7896604 L116,65.7896604 L116,61 L128.226793,61 C134.947193,61 139.788772,63.6685251 139.788772,69.2519007 C139.806631,72.4398133 137.732879,75.3033841 134.585881,76.4363913 L138.748193,83.2103396 L142,83.2103396 L142,88 L134.513619,88 L128.906059,78.0238216 C128.429127,78.0238216 127.952196,78.0648758 127.460812,78.0648758 C126.738188,78.0648758 126.015564,78.0648758 125.46637,78.0238216 L125.46637,83.1966548 L128.588105,83.1966548 L128.617009,88 Z M133.789474,68.93125 C133.789474,66.4 131.635893,65.05 127.911993,65.05 L125.578947,65.05 L125.578947,73.065625 C126.117343,73.1078125 126.74547,73.15 128.046592,73.15 C131.411562,73.15 133.789474,71.63125 133.789474,68.93125 Z" id="Shape"></path>
                <path d="M158.117207,88.9973694 C149.150968,88.9973694 143,83.0358854 143,74.1374938 C142.9569,65.4582744 149.454175,59 158.174961,59 C165.148702,59 169.480218,62.6528701 169.480218,66.3057402 C169.550311,67.3374696 169.184976,68.3509168 168.474866,69.0946086 C167.764756,69.8383003 166.776425,70.2425344 165.755114,70.2070055 C164.805874,70.2452862 163.884568,69.8773703 163.216954,69.1934124 C162.549341,68.5094545 162.197115,67.5726596 162.246586,66.6125813 C162.254976,66.2410342 162.313264,65.8723682 162.419847,65.5167203 C161.092066,64.8429174 159.61539,64.525928 158.131645,64.596197 C153.150402,64.596197 149.338667,68.4097934 149.338667,74.0206019 C149.338667,79.4560727 153.020456,83.4011724 158.391536,83.4011724 C161.726804,83.4011724 164.325714,81.8231325 166.534787,79.8067482 L170,84.0148546 C166.894718,87.2736557 162.590013,89.0786402 158.117207,88.9973694 L158.117207,88.9973694 Z" id="Path"></path>
                <polygon id="Path" points="172.028342 83.2079108 175.2735 83.2079108 175.2735 65.7920892 172 65.7920892 172 61 184.626358 61 184.626358 65.7920892 181.310345 65.7920892 181.310345 72.076572 192.647142 72.076572 192.647142 65.7920892 189.288616 65.7920892 189.288616 61 201.957487 61 201.957487 65.7920892 198.7265 65.7920892 198.7265 83.2079108 202 83.2079108 202 88 189.331129 88 189.331129 83.2079108 192.689655 83.2079108 192.689655 76.6769777 181.352858 76.6769777 181.352858 83.2079108 184.668871 83.2079108 184.668871 88 172.028342 88"></polygon>
            </g>
        </g>
    </g>
</svg>