<?xml version="1.0" encoding="UTF-8"?>
<svg width="383px" height="127px" viewBox="0 0 383 127" version="1.1" xmlns="http://www.w3.org/2000/svg" xmlns:xlink="http://www.w3.org/1999/xlink">
    <title>KwikTripMerch</title>
    <g id="Page-1" stroke="none" stroke-width="1" fill="none" fill-rule="evenodd">
        <g id="KwikTripMerch" fill="#CE0E2D" fill-rule="nonzero">
            <polygon id="Path" points="370.14 59.22 370.14 59.76 368.48 59.76 368.48 63.83 367.8 63.83 367.8 59.76 366.15 59.76 366.15 59.22"></polygon>
            <path d="M370.74,59.22 L371.74,59.22 L373.14,63.11 L374.55,59.22 L375.5,59.22 L375.5,63.83 L374.86,63.83 L374.86,61.11 C374.86,61.01 374.86,60.86 374.86,60.64 C374.86,60.42 374.86,60.19 374.86,59.94 L373.45,63.83 L372.74,63.83 L371.33,59.94 L371.33,60.05 C371.33,60.16 371.33,60.34 371.33,60.57 C371.33,60.8 371.33,60.97 371.33,61.08 L371.33,63.8 L370.74,63.8 L370.74,59.22 Z" id="Path"></path>
            <path d="M335.74,19.93 C335.54696,19.6724812 335.241776,19.5236108 334.92,19.5298024 L322.15,19.5298024 C321.618732,19.5245966 321.136813,19.8406091 320.93,20.33 L304.63,62.33 C304.536803,62.5678608 304.574729,62.8371347 304.73,63.04 C304.890524,63.2528135 305.143492,63.3755778 305.41,63.3701822 L318.57,63.3701822 C319.007607,63.3676556 319.401385,63.1038242 319.57,62.7 L335.84,20.76 C335.952044,20.4719439 335.906617,20.1463825 335.72,19.9" id="Path"></path>
            <path d="M293.97,19.79 C293.003165,19.6152053 292.022507,19.5281844 291.04,19.5299577 L270.18,19.5299577 C269.775089,19.5262879 269.407905,19.7671287 269.25,20.14 L252.95,62.14 C252.841686,62.4251751 252.886972,62.7459555 253.07,62.99 C253.260957,63.2446417 253.561729,63.393171 253.88,63.390084 L266.74,63.390084 C267.247051,63.3923641 267.705296,63.0881842 267.9,62.62 L273.08,49.26 C273.190829,48.9947371 273.452574,48.824206 273.74,48.83 L280,48.83 C280.341342,48.8218226 280.634233,49.0716416 280.68,49.41 L282.09,62.55 C282.169228,63.0390578 282.594607,63.396376 283.09,63.390084 L295.74,63.390084 C296.01566,63.3917015 296.279796,63.2795342 296.47,63.08 C296.658334,62.890409 296.750313,62.6255099 296.72,62.36 L293.72,49.26 C293.687432,48.7442218 294.021539,48.2764715 294.52,48.14 C301.03,46.22 306.6,40.61 306.6,34.14 C306.6,27.14 301.27,21.04 293.92,19.73 M291.21,35.12 L291.21,35.12 C290.444837,36.8406102 288.711966,37.9246435 286.83,37.86 L277.64,37.86 C277.421757,37.8608516 277.215248,37.7612848 277.08,37.59 C276.952839,37.4209199 276.919033,37.1993031 276.99,37 L279.39,30.39 C279.533352,30.0201378 279.893453,29.7800707 280.29,29.79 L286.83,29.79 C289.38,29.79 291.45,31.6 291.45,33.79 C291.449159,34.2333797 291.371336,34.6732463 291.22,35.09" id="Shape"></path>
            <path d="M95.3,48.78 L94.95,62.32 C94.9434985,62.6190135 95.0636193,62.9068585 95.2807402,63.112552 C95.4978611,63.3182455 95.7917742,63.4222947 96.09,63.4 L112.47,63.4 C113.016492,63.3987854 113.517202,63.0945078 113.77,62.61 L130.38,21.15 C130.576243,20.806021 130.576243,20.383979 130.38,20.04 C130.156593,19.7092955 129.778871,19.5166576 129.38,19.53 L115.81,19.53 C115.264759,19.5356265 114.766138,19.8386342 114.51,20.32 L105.26,43.89 L107.26,20.62 C107.26323,20.3211286 107.142459,20.0342824 106.926428,19.8277266 C106.710397,19.6211709 106.418426,19.5133776 106.12,19.53 L94.12,19.53 C93.0156599,19.5385949 92.0053409,20.1532376 91.49,21.13 L81.95,43.89 L84.42,20.41 C84.417532,20.1686009 84.3171061,19.9385605 84.1417535,19.7726355 C83.966401,19.6067105 83.7311672,19.5191374 83.49,19.53 L70.38,19.53 C70.0069632,19.5449996 69.6518742,19.694137 69.38,19.95 C69.0942317,20.2038893 68.9304991,20.5677396 68.93,20.95 L68.8399975,62.35 C68.8393651,62.6463369 68.9616543,62.9296666 69.1777254,63.1324702 C69.3937964,63.3352737 69.6842973,63.4393873 69.98,63.42 L85.37,63.42 C85.9125053,63.4142314 86.4096134,63.1159665 86.67,62.64 L93.88,48.64 C94.0250233,48.3591427 94.3139166,48.1819548 94.63,48.18 L94.73,48.18 C95.0590479,48.2014217 95.3115079,48.4804564 95.3,48.81" id="Path"></path>
            <path d="M212.61,20.05 C212.474321,19.7017817 212.1335,19.477241 211.76,19.49 L192.74,19.49 C192.37779,19.4868712 192.025237,19.6067392 191.74,19.83 L174.65,35.05 L181.34,20.66 C181.440558,20.3951506 181.399086,20.097304 181.23,19.87 C181.05478,19.6389522 180.779936,19.5052443 180.49,19.51 L167.27,19.51 C166.433536,19.5012138 165.674812,19.9991267 165.35,20.77 L149.27,62.26 C149.169261,62.5215219 149.210865,62.8165372 149.38,63.04 C149.553101,63.2748168 149.828286,63.4124093 150.12,63.4102652 L163.34,63.4102652 C163.711001,63.4140679 164.047321,63.1924921 164.19,62.85 L166.69,56.57 C166.800264,56.2848529 166.987133,56.0356948 167.23,55.85 L177.96,47.4 C178.119161,47.2739656 178.317005,47.2068401 178.52,47.21 C178.643482,47.2089365 178.765914,47.2327428 178.88,47.28 C179.177268,47.3982271 179.377101,47.6803447 179.39,48 L180.49,62.58 C180.516847,63.0542137 180.915168,63.4215542 181.39,63.4102652 L195.67,63.4102652 C195.916923,63.4102652 196.154002,63.3131926 196.33,63.14 C196.500763,62.9720629 196.591718,62.7392184 196.58,62.5 L192.33,37.72 C192.296763,37.1651555 192.540112,36.6297877 192.98,36.29 L212.34,21.05 C212.638054,20.8333106 212.749537,20.4410574 212.61,20.1" id="Path"></path>
            <path d="M380.19,26.48 C377.217534,22.0732689 372.225073,19.4604975 366.91,19.53 L347.91,19.53 C346.993603,19.5170813 346.161775,20.0637112 345.81,20.91 L329.92,62.26 C329.81902,62.5181879 329.860766,62.8104142 330.03,63.03 C330.20522,63.2610478 330.480064,63.3947557 330.77,63.3901227 L343.66,63.3901227 L343.66,63.3901227 C344.097576,63.3782263 344.488191,63.112608 344.66,62.71 C345.77,59.84 349.03,51.49 349.74,49.71 C349.959382,49.1938998 350.469267,48.8618816 351.03,48.87 L366.88,48.87 C371.61,48.87 377.71,46.57 380.53,41.65 C383.343769,36.9514442 383.195785,31.0515835 380.15,26.5 M363.55,37.94 L355.37,37.94 C355.145424,37.944022 354.9315,37.8444365 354.79,37.67 C354.667272,37.4858739 354.648364,37.2514136 354.74,37.05 L357.15,30.44 C357.293572,30.0865108 357.638482,29.856571 358.02,29.8599622 L363.59,29.8599622 C366.14,29.8599622 368.22,31.67 368.22,33.86 C368.22,36.05 366.14,37.86 363.59,37.86" id="Shape"></path>
            <path d="M38.47,35.37 L40.74,62.17 C40.7926747,62.8690909 41.3789649,63.4072529 42.08,63.400248 L58.94,63.400248 C59.2451896,63.3978584 59.5360333,63.2701519 59.74414,63.0469101 C59.9522467,62.8236684 60.0592542,62.5245892 60.04,62.22 L55.54,21.05 C55.5036914,20.4861085 55.7466653,19.9403517 56.19,19.59 L78.74,0.93 C78.9157958,0.793615006 78.9876918,0.561950091 78.92,0.35 C78.837455,0.160341912 78.6466506,0.0410891701 78.44,0.05 L56.3,0.05 C55.9595552,0.0498347455 55.630062,0.170294619 55.37,0.39 L34.07,22.22 L42.74,0.89 C42.8206024,0.694415885 42.7976648,0.471434774 42.678933,0.29635575 C42.5602013,0.121276726 42.3615266,0.0174736284 42.15,0.0199549214 L24.87,0.0199549214 C24.3988842,0.0256969929 23.9771503,0.313421979 23.8,0.75 L0.1,61.54 C-0.0703954926,61.9586345 -0.0216776925,62.4345699 0.23,62.81 C0.47722726,63.1859685 0.900114186,63.4087393 1.35,63.400248 L16.79,63.400248 C17.6510163,63.3790133 18.4172787,62.848524 18.74,62.05 L25.34,45.27 C25.5906524,44.6255201 26.0041013,44.057028 26.54,43.62 L37.21,34.87 C37.3538139,34.7511469 37.5334773,34.6842135 37.72,34.68 C37.8164397,34.6807755 37.9117104,34.7011907 38,34.74 C38.2601225,34.848204 38.4403839,35.0898309 38.47,35.37" id="Path"></path>
            <path d="M155.17,19.93 C154.97696,19.6724812 154.671776,19.5236108 154.35,19.5298024 L141.57,19.5298024 C141.038732,19.5245966 140.556813,19.8406091 140.35,20.33 L124.05,62.33 C123.956803,62.5678608 123.994729,62.8371347 124.15,63.04 C124.312601,63.250272 124.564204,63.3723735 124.83,63.370034 L138,63.370034 C138.436001,63.362481 138.82721,63.1003715 139,62.7 L155.26,20.76 C155.372044,20.4719439 155.326617,20.1463825 155.14,19.9" id="Path"></path>
            <path d="M221.87,63.4 L236.74,63.4 C237.625735,63.543503 238.48086,63.0090498 238.74,62.15 L257.46,14.05 C257.793802,13.2409006 258.584763,12.7149117 259.46,12.72 L275.81,12.72 C276.547558,12.7312348 277.217322,12.2913307 277.5,11.61 L281.74,1.15 C281.843578,0.890173807 281.805773,0.59529401 281.64,0.37 C281.46478,0.138952187 281.189936,0.00524428683 280.9,0.00986787986 L225.74,0.00986787986 C225.216379,0.00255858137 224.739417,0.310022162 224.53,0.79 L219.98,11.79 C219.890644,12.0010191 219.917142,12.2432856 220.05,12.43 C220.190536,12.618976 220.414608,12.7272776 220.65,12.72 L238.71,12.72 C239.033571,12.7159423 239.339104,12.8687088 239.53,13.13 C239.716552,13.3802309 239.761846,13.7086108 239.65,14 L220.86,62.05 C220.739575,62.3635997 220.784653,62.7167115 220.98,62.99 C221.192957,63.2648007 221.522364,63.4239523 221.87,63.42" id="Path"></path>
            <polygon id="Path" points="76.84 118.31 81.52 118.31 82.74 92.87 77.86 92.87 77.86 85.87 90.58 85.87 101.58 105.87 112.58 85.87 125.18 85.87 125.18 92.87 120.34 92.87 121.6 118.31 126.28 118.31 126.28 125.31 108.64 125.31 108.64 118.31 113.2 118.31 112.42 100.55 101.92 118.61 101.02 118.61 90.58 100.55 89.8 118.31 94.3 118.31 94.3 125.31 76.84 125.31"></polygon>
            <polygon id="Path" points="129.88 118.31 134.5 118.31 134.5 92.87 129.88 92.87 129.88 85.87 161.38 85.87 161.38 97.87 153.58 97.87 153.58 92.87 143.02 92.87 143.02 102.11 154.6 102.11 154.6 108.47 143.02 108.47 143.02 118.31 153.58 118.31 153.58 113.05 161.44 113.05 161.44 125.29 129.88 125.29"></polygon>
            <path d="M183.34,125.33 L165.88,125.33 L165.88,118.33 L170.5,118.33 L170.5,92.87 L165.88,92.87 L165.88,85.87 L182.8,85.87 C192.1,85.87 198.8,89.77 198.8,97.93 C198.824714,102.589075 195.954962,106.774131 191.6,108.43 L197.36,118.33 L201.86,118.33 L201.86,125.33 L191.5,125.33 L183.74,110.75 C183.08,110.75 182.42,110.81 181.74,110.81 C180.74,110.81 179.74,110.81 178.98,110.75 L178.98,118.31 L183.3,118.31 L183.34,125.33 Z M190,98.39 C190,94.79 187.12,92.87 182.14,92.87 L179.02,92.87 L179.02,104.27 C179.74,104.33 180.58,104.39 182.32,104.39 C186.82,104.39 190,102.23 190,98.39 Z" id="Shape"></path>
            <path d="M225.74,126.11 C213.32,126.11 204.799702,117.95 204.799702,105.77 C204.74,93.89 213.74,85.05 225.82,85.05 C235.48,85.05 241.48,90.05 241.48,95.05 C241.577093,96.4622175 241.071032,97.8494105 240.08739,98.8673658 C239.103748,99.8853212 237.734716,100.438631 236.32,100.39 C235.005116,100.442398 233.728926,99.9387996 232.804151,99.0026072 C231.879375,98.0664147 231.391473,96.7841423 231.46,95.47 C231.471622,94.9614312 231.552362,94.4568061 231.7,93.97 C229.860763,93.0477076 227.815277,92.6138167 225.76,92.71 C218.86,92.71 213.58,97.93 213.58,105.61 C213.58,113.05 218.68,118.45 226.12,118.45 C230.74,118.45 234.34,116.29 237.4,113.53 L242.2,119.29 C237.898575,123.750604 231.935714,126.221242 225.74,126.11 L225.74,126.11 Z" id="Path"></path>
            <polygon id="Path" points="246.16 118.31 250.74 118.31 250.74 92.87 246.12 92.87 246.12 85.87 263.94 85.87 263.94 92.87 259.26 92.87 259.26 102.05 275.26 102.05 275.26 92.87 270.52 92.87 270.52 85.87 288.4 85.87 288.4 92.87 283.84 92.87 283.84 118.31 288.46 118.31 288.46 125.31 270.58 125.31 270.58 118.31 275.32 118.31 275.32 108.77 259.32 108.77 259.32 118.31 264 118.31 264 125.31 246.16 125.31"></polygon>
        </g>
    </g>
</svg>